<svg width="146" height="142" viewBox="0 0 146 142" fill="none" xmlns="http://www.w3.org/2000/svg">
<path fill-rule="evenodd" clip-rule="evenodd" d="M92.751 41.5V30.0156C92.751 26.0156 92.4854 22.4375 91.9541 19.2812C91.4229 16.0938 90.6572 13.3438 89.6572 11.0312C88.6885 8.71875 87.4854 6.8125 86.0479 5.3125C84.6104 3.78125 82.9697 2.64062 81.126 1.89062C79.2822 1.14062 77.251 0.765625 75.0322 0.765625C72.2822 0.765625 69.8135 1.35938 67.626 2.54688C65.4385 3.70312 63.5791 5.48438 62.0479 7.89062C60.5166 10.2656 59.3447 13.2969 58.5322 16.9844C57.7197 20.6719 57.3135 25.0156 57.3135 30.0156V41.5C57.3135 45.5312 57.5791 49.125 58.1104 52.2812C58.6416 55.4375 59.4072 58.1875 60.4072 60.5312C61.4072 62.875 62.626 64.8281 64.0635 66.3906C65.501 67.9219 67.1416 69.0625 68.9854 69.8125C70.8291 70.5625 72.8604 70.9375 75.0791 70.9375C77.8291 70.9375 80.2979 70.3438 82.4854 69.1562C84.7041 67.9688 86.5635 66.1719 88.0635 63.7656C89.5635 61.3594 90.7197 58.2969 91.5322 54.5781C92.3447 50.8594 92.751 46.5 92.751 41.5ZM87.5479 29.2656V42.1562C87.5479 46 87.2822 49.4062 86.751 52.375C86.251 55.3125 85.4854 57.8125 84.4541 59.875C83.4229 61.9062 82.126 63.4531 80.5635 64.5156C79.001 65.5469 77.1729 66.0625 75.0791 66.0625C73.4229 66.0625 71.9229 65.7344 70.5791 65.0781C69.2666 64.3906 68.0947 63.3906 67.0635 62.0781C66.0635 60.7656 65.2197 59.1406 64.5322 57.2031C63.876 55.2656 63.376 53.0469 63.0322 50.5469C62.6885 48.0156 62.5166 45.2188 62.5166 42.1562V29.3125C62.5166 25.4062 62.7822 21.9844 63.3135 19.0469C63.8447 16.0781 64.626 13.6094 65.6572 11.6406C66.7197 9.64062 68.0166 8.14062 69.5479 7.14062C71.1104 6.14062 72.9229 5.64062 74.9854 5.64062C76.6729 5.64062 78.1729 5.96875 79.4854 6.625C80.8291 7.25 82.0166 8.20312 83.0479 9.48438C84.0791 10.7656 84.9229 12.3594 85.5791 14.2656C86.2354 16.1406 86.7197 18.3438 87.0322 20.875C87.376 23.375 87.5479 26.1719 87.5479 29.2656ZM140.626 52.7969V47.9219H131.813V1.75H130.548H126.657H126.235L99.8447 49.5156V52.7969H126.657V70H131.813V52.7969H140.626ZM126.657 9.62614L124.782 13.4219L106.126 47.9219H126.657V9.62614ZM47.251 47.9219V52.7969H38.4385V70H33.2822V52.7969H6.46974V49.5156L32.8604 1.75H33.2822H37.1729H38.4385V47.9219H47.251ZM31.4072 13.4219L33.2822 9.62614V47.9219H12.751L31.4072 13.4219ZM24.0449 124.539L24.2879 124.574C24.2117 125.063 24.1291 125.545 24.0471 126.022C23.8715 127.046 23.6993 128.049 23.6018 129.064C23.2874 132.455 23.0408 135.857 22.7979 139.259C22.7425 140.056 22.9479 140.914 23.6358 141.08C24.1992 141.182 24.7737 141.022 25.2437 140.633C25.9937 139.982 26.653 139.19 27.1964 138.287C30.0288 133.391 32.8296 128.473 35.5988 123.532C35.9829 122.852 36.3795 122.474 37.0727 122.383C39.5467 122.062 42.0196 121.724 44.4923 121.387L44.4929 121.387L44.4935 121.387C48.1113 120.894 51.7288 120.401 55.3495 119.956C60.3539 119.34 65.3632 118.782 70.3723 118.224L70.3725 118.224L70.3748 118.224C72.1799 118.023 73.985 117.822 75.7899 117.619C76.7712 117.508 77.754 117.415 78.7632 117.319L78.7635 117.319C79.2718 117.27 79.7869 117.221 80.3117 117.169C79.9556 117.455 79.6046 117.725 79.2607 117.99C78.4764 118.594 77.7291 119.169 77.0423 119.835C75.529 121.299 74.4803 123.066 75.2557 125.638C75.1315 125.682 75.0137 125.724 74.8999 125.766C74.714 125.833 74.5385 125.896 74.3624 125.954C73.0173 126.394 71.6715 126.833 70.3255 127.272L70.3072 127.278L70.2812 127.287C67.7051 128.127 65.1285 128.968 62.5566 129.816C60.5734 130.475 58.5987 131.174 56.6237 131.874L55.8658 132.142C55.3406 132.328 54.9368 132.701 55.0279 133.457C55.119 134.213 55.5907 134.412 56.1445 134.412C56.3861 134.409 56.6285 134.411 56.871 134.414C57.5252 134.42 58.1805 134.426 58.8244 134.33C65.1108 133.378 71.3966 132.413 77.6818 131.434C78.5657 131.296 79.4471 131.134 80.4134 130.957L80.4178 130.957L80.4395 130.953C80.9029 130.868 81.3859 130.779 81.8982 130.688C81.7476 130.946 81.6218 131.187 81.5066 131.407C81.2758 131.849 81.0872 132.21 80.8262 132.464C79.7588 133.497 78.6712 134.489 77.5831 135.481C77.1559 135.87 76.7287 136.26 76.3026 136.652L76.2637 136.688L76.215 136.733C75.8581 137.059 75.468 137.416 75.7666 138.036C76.09 138.708 76.5742 138.453 77.0172 138.173C78.2156 137.412 79.4125 136.649 80.6093 135.886C84.1231 133.645 87.6359 131.405 91.1795 129.235C91.8247 128.847 92.5599 128.671 93.358 128.48L93.3582 128.48C93.7555 128.384 94.1685 128.285 94.5937 128.155C94.5199 128.406 94.4556 128.613 94.3998 128.793L94.3997 128.793L94.3996 128.794C94.3001 129.114 94.2278 129.347 94.1774 129.587C94.0317 130.284 93.8792 130.979 93.7268 131.675C93.3241 133.512 92.9214 135.349 92.6427 137.214C92.3962 138.862 93.2609 139.464 94.5115 138.676C95.1705 138.259 95.7992 137.776 96.391 137.231C97.5023 136.207 98.5939 135.14 99.6658 134.06C100.681 133.044 101.688 132.015 102.695 130.986L102.696 130.985L102.701 130.981C103.154 130.518 103.607 130.055 104.061 129.593C104.034 129.89 103.954 130.176 103.827 130.431C103.698 130.791 103.568 131.15 103.438 131.51C102.987 132.755 102.536 134.004 102.142 135.276C101.958 135.872 102.13 136.65 102.755 136.674C103.08 136.687 103.55 136.153 103.729 135.721C103.911 135.304 104.033 134.85 104.155 134.398C104.293 133.887 104.431 133.379 104.652 132.928C105.268 131.676 105.926 130.454 106.584 129.232L106.584 129.232L106.585 129.231C107.03 128.405 107.475 127.579 107.907 126.742C108.288 125.999 108.77 125.684 109.485 125.567C111.94 125.172 114.394 124.742 116.847 124.311L116.85 124.31C118.048 124.1 119.245 123.89 120.444 123.684C121.991 123.41 123.543 123.151 125.105 122.89L125.115 122.888C125.68 122.794 126.246 122.699 126.815 122.604C126.234 124.533 126.127 124.63 124.626 124.718C124.373 124.733 124.118 124.757 123.863 124.78C123.494 124.814 123.124 124.848 122.756 124.857L122.71 124.858C122.191 124.872 121.627 124.887 121.641 125.699C121.659 126.591 122.293 126.563 122.838 126.54L122.85 126.539C123.319 126.52 123.786 126.493 124.287 126.465L124.288 126.465L124.581 126.448C124.73 126.439 124.883 126.431 125.041 126.422C124.895 126.837 124.744 127.229 124.598 127.608L124.598 127.608C124.284 128.422 123.994 129.177 123.824 129.971C123.455 131.666 123.209 133.397 123.09 135.144C123.054 135.697 123.533 136.533 123.965 136.818C124.289 137.032 125.057 136.745 125.384 136.371C126.382 135.222 127.292 133.958 128.2 132.697L128.339 132.505C128.471 132.316 128.534 132.051 128.597 131.786C128.627 131.658 128.658 131.53 128.696 131.41L128.473 131.194L128.294 131.358C128.165 131.476 128.035 131.594 127.905 131.713L127.905 131.713L127.905 131.713C127.488 132.094 127.07 132.475 126.667 132.855C126.346 133.156 126.028 133.464 125.695 133.787L125.695 133.787L125.693 133.789C125.416 134.057 125.128 134.336 124.819 134.63C124.785 132.632 126.109 127.718 126.963 126.584C127.16 126.379 127.406 126.256 127.665 126.232C128.12 126.162 128.576 126.11 129.032 126.057L129.033 126.057C129.732 125.976 130.431 125.895 131.12 125.753C132.155 125.54 133.181 125.267 134.207 124.994L134.208 124.994C134.646 124.878 135.085 124.761 135.524 124.649L135.471 124.286C133.99 123.862 132.51 124.048 131.02 124.235C130.037 124.358 129.049 124.482 128.055 124.431C128.464 122.785 129.211 121.77 130.62 121.541L129.727 120.99C129.787 120.859 129.853 120.737 129.916 120.62C130.052 120.367 130.176 120.136 130.209 119.884C130.243 119.63 130.18 119.358 130.118 119.086L130.118 119.085C130.09 118.963 130.062 118.842 130.043 118.722C129.949 118.748 129.848 118.764 129.747 118.781C129.504 118.822 129.258 118.863 129.096 119.025C128.92 119.202 128.788 119.443 128.656 119.686C128.54 119.9 128.423 120.115 128.274 120.288L128.234 120.335C127.924 120.696 127.552 121.129 127.174 121.182C121.534 122.018 115.888 122.779 110.241 123.53C109.916 123.554 109.596 123.425 109.347 123.172C108.845 122.61 108.365 122.554 107.952 123.137C107.373 123.954 106.648 124.178 105.822 124.284C105.138 124.37 104.458 124.501 103.777 124.632C103.488 124.688 103.198 124.744 102.908 124.796L97.6488 125.733C97.6032 125.665 97.5568 125.598 97.5102 125.53L97.4469 125.438C97.6139 125.187 97.7745 124.928 97.9351 124.669C98.2968 124.086 98.6586 123.502 99.0941 123.016C99.8869 122.144 100.745 121.363 101.656 120.681C102.419 120.105 103.244 119.504 104.105 119.288C107.311 118.461 110.532 117.717 113.753 116.974L114.735 116.747C115.045 116.676 115.355 116.604 115.665 116.532C116.494 116.34 117.329 116.18 118.173 116.018L118.174 116.018L118.175 116.017C118.567 115.942 118.961 115.866 119.358 115.787C119.386 116.262 119.406 116.588 119.436 117.083C119.608 116.983 119.795 116.902 119.972 116.826C120.334 116.67 120.658 116.53 120.749 116.271C121.06 115.389 121.61 115.309 122.19 115.224C122.261 115.213 122.332 115.203 122.404 115.191C129.774 113.968 137.144 112.73 144.515 111.476C144.588 111.463 144.665 111.453 144.743 111.442C145.357 111.357 146.076 111.258 146.003 110.238C145.931 109.209 145.226 109.284 144.62 109.349L144.62 109.35C144.531 109.359 144.444 109.368 144.361 109.374C141.42 109.575 138.478 109.797 135.541 110.063C128.064 110.754 120.587 111.444 113.108 112.132C112.478 112.19 111.847 112.242 111.216 112.293L111.215 112.293L111.215 112.293C110.854 112.323 110.494 112.352 110.133 112.383C110.561 111.697 111.043 111.114 111.518 110.54L111.518 110.54C111.777 110.227 112.033 109.917 112.277 109.594C113.639 107.797 114.975 105.966 116.249 104.078C116.494 103.715 116.608 102.883 116.417 102.527C116.226 102.171 115.55 101.911 115.179 102.028C115.077 102.061 114.975 102.093 114.872 102.126C113.8 102.468 112.699 102.819 111.765 103.484C108.47 105.821 105.828 109.108 103.189 112.391C102.824 112.834 102.349 113.119 101.837 113.204C99.5032 113.462 97.1665 113.693 94.8282 113.923C92.6583 114.137 90.4869 114.351 88.3156 114.588C87.088 114.72 85.8604 114.852 84.6327 114.983L84.5766 114.989C77.5239 115.745 70.4712 116.5 63.4249 117.336C58.1034 117.962 52.7836 118.652 47.4666 119.342L47.4633 119.343C44.977 119.665 42.4913 119.988 40.0063 120.303C39.4246 120.385 38.8429 120.452 38.2217 120.524L38.221 120.524L38.2207 120.524L38.2205 120.524C37.892 120.562 37.5524 120.601 37.196 120.645C37.9229 119.207 38.6345 117.799 39.3368 116.409L39.3416 116.399C40.5224 114.062 41.677 111.777 42.8344 109.493C43.1703 108.832 43.4276 108.134 42.7648 107.605C42.1555 107.117 41.6285 107.512 41.2104 108.115C41.0653 108.342 40.9345 108.583 40.8192 108.834C40.3612 109.737 39.8929 110.634 39.4247 111.53C38.3184 113.648 37.2123 115.766 36.2419 117.971C35.2093 120.318 33.9122 121.614 31.6361 121.614C30.5492 121.617 29.4632 121.836 28.3399 122.063C27.8272 122.166 27.3067 122.271 26.7748 122.357C26.8299 122.074 26.8757 121.835 26.9174 121.619L26.9621 121.386C26.9834 121.275 27.0041 121.168 27.0249 121.061C27.1346 120.494 27.2465 119.927 27.3584 119.359C27.633 117.968 27.9075 116.577 28.1487 115.176C28.2863 114.381 28.2523 113.558 27.4626 113.184C26.7284 112.839 26.2603 113.355 25.869 113.977C25.4504 114.643 25.0187 115.3 24.5869 115.957L24.5868 115.957C23.4781 117.645 22.3686 119.334 21.4776 121.176C20.5343 123.126 19.3408 123.742 17.6203 124.09C12.7303 125.078 7.86332 126.249 2.998 127.419L2.99755 127.419L1.84118 127.697C1.40046 127.803 0.98994 128.093 0.579727 128.381C0.391291 128.514 0.202921 128.647 0.0117188 128.762C0.030681 128.839 0.0502644 128.917 0.0697365 128.994L0.0697673 128.994C0.0833081 129.048 0.0967948 129.102 0.109981 129.155C0.328817 129.155 0.549452 129.168 0.770002 129.18H0.770087H0.770173C1.24459 129.208 1.71861 129.236 2.17349 129.135C4.25216 128.674 6.32663 128.188 8.40117 127.702L8.40154 127.702L8.40191 127.702L8.40302 127.702L8.40406 127.702C10.1532 127.292 11.9023 126.882 13.6541 126.487C14.8906 126.209 16.1347 125.978 17.4404 125.736L17.4406 125.736L17.4411 125.736L17.4423 125.736C18.0414 125.625 18.6534 125.512 19.2836 125.39C19.1782 125.635 19.0824 125.846 18.9955 126.038C18.8481 126.362 18.7262 126.631 18.6262 126.915C18.3201 127.784 18.0066 128.651 17.693 129.517L17.6929 129.517C16.8278 131.908 15.9625 134.298 15.2531 136.756C14.9284 137.881 15.0097 139.197 15.0882 140.467L15.0882 140.467C15.1039 140.721 15.1194 140.972 15.1316 141.22C15.1459 141.527 15.8445 142.069 16.1446 141.994C16.4448 141.918 16.9075 141.177 16.8592 140.81C16.5948 138.797 16.9343 136.913 17.5739 135.125C18.0152 133.891 18.501 132.68 18.9868 131.469L18.9868 131.469C19.5395 130.092 20.0921 128.714 20.5789 127.304C21.2525 125.353 22.3476 124.468 24.0449 124.539ZM100.555 115.163C100.755 115.153 100.969 115.144 101.206 115.13C100.981 115.493 100.771 115.837 100.571 116.165L100.571 116.166L100.57 116.166C100.123 116.9 99.7218 117.558 99.2924 118.191C99.0645 118.464 98.7747 118.649 98.4599 118.722C91.4457 120.813 84.431 122.901 77.4156 124.986C76.5581 125.241 76.0418 124.645 76.3687 123.643C76.6327 122.811 77.0305 122.051 77.5389 121.407C78.7895 119.882 80.3474 118.867 82.034 118.206C84.5441 117.219 87.0632 116.338 89.7431 116.189C91.9852 116.064 94.2231 115.812 96.4609 115.56C97.4809 115.445 98.5008 115.33 99.5211 115.227C99.8472 115.195 100.174 115.18 100.555 115.163ZM78.9682 126.451L97.7274 120.871C97.0967 122.563 96.2981 123.556 95.3048 124.5C92.9465 126.714 90.1969 127.252 87.3848 127.684C87.2243 127.707 87.0623 127.727 86.8999 127.746L86.8996 127.746L86.8994 127.747C86.3155 127.818 85.7268 127.889 85.1873 128.116C83.0839 129.004 81.3619 127.935 79.4446 126.745L79.4428 126.744L79.4356 126.739C79.2812 126.644 79.1255 126.547 78.9682 126.451ZM32.0208 125.853C29.7858 130.033 27.6185 134.085 24.915 137.691C24.8614 133.267 25.5099 129.027 26.2924 124.813C26.3425 124.52 26.6497 124.12 26.8784 124.077C28.5504 123.763 30.2268 123.489 32.0324 123.194L32.0337 123.194C32.5409 123.111 33.0584 123.026 33.5889 122.938C33.0576 123.914 32.5374 124.887 32.0208 125.853ZM102.784 126.81L102.783 126.81L102.783 126.81C101.35 127.094 99.9183 127.378 98.476 127.507C96.9145 127.641 96.1659 128.511 95.7853 130.233C95.4707 131.656 95.1024 133.061 94.7341 134.466L94.7341 134.466L94.734 134.466L94.734 134.466C94.5775 135.063 94.4209 135.66 94.2685 136.259L94.574 136.475C98.1304 133.459 101.486 130.11 104.609 126.46C104 126.569 103.391 126.689 102.784 126.81ZM105.807 112.83C105.552 112.852 105.286 112.874 105.004 112.901V112.897C107.922 108.666 112.942 103.21 115.427 103.46C115.318 103.662 115.221 103.866 115.127 104.064L115.126 104.064C114.943 104.45 114.77 104.814 114.534 105.1C112.613 107.491 110.677 109.864 108.697 112.184C108.44 112.487 107.963 112.565 107.555 112.632L107.47 112.646C106.939 112.734 106.403 112.779 105.807 112.83ZM80.0991 128.796L80.0812 129.071L63.4374 131.898L63.4373 131.897L63.419 131.802C63.4074 131.741 63.3961 131.68 63.3856 131.619C63.9477 131.432 64.5091 131.238 65.0708 131.044L65.0728 131.043L65.0748 131.042L65.0761 131.042L65.0788 131.041C65.7694 130.802 66.4604 130.563 67.1535 130.336C68.1694 130.003 69.1863 129.674 70.203 129.345L70.2102 129.342C72.0947 128.733 73.9787 128.123 75.856 127.485C76.5902 127.235 77.2102 127.239 77.9052 127.688C78.389 128.001 78.9066 128.239 79.4241 128.478C79.6501 128.582 79.876 128.686 80.0991 128.796ZM120.665 113.292C120.882 113.297 121.106 113.303 121.341 113.303L105.992 116.69C106.023 116.652 106.054 116.614 106.084 116.577C106.149 116.497 106.213 116.417 106.277 116.337C107.116 115.29 107.902 114.309 109.34 114.247C111.672 114.143 113.991 113.889 116.309 113.636C117.365 113.52 118.422 113.404 119.479 113.303C119.863 113.272 120.251 113.282 120.665 113.292ZM87.6367 129.885L82.2305 133.39V133.382C82.3139 133.133 82.3931 132.895 82.4697 132.665C82.6932 131.993 82.8939 131.389 83.1095 130.799C83.1425 130.706 83.1914 130.622 83.253 130.554C83.3146 130.485 83.3874 130.433 83.4668 130.401C84.5028 130.193 85.5409 130.004 86.5787 129.816L87.1034 129.72C87.2562 129.692 87.4089 129.665 87.5617 129.636L87.6367 129.885ZM105.339 115.602C104.274 116.717 103.271 117.768 101.69 117.768C103.155 114.83 103.266 114.757 106.271 114.664C105.946 114.967 105.64 115.287 105.339 115.602L105.339 115.602ZM22.8943 122.991L22.8941 122.99C22.8653 122.931 22.8363 122.872 22.8068 122.813L25.2562 118.593L25.492 118.709C25.4167 119.067 25.3523 119.431 25.288 119.795C25.1282 120.699 24.9685 121.603 24.6398 122.407C24.5096 122.725 24.0407 122.841 23.5717 122.956C23.3586 123.009 23.1454 123.061 22.964 123.133C22.9473 123.1 22.9307 123.065 22.9139 123.031L22.8943 122.991ZM46.4273 125.641C45.5518 125.66 44.8336 126.466 44.7229 127.677C44.7565 127.669 44.7883 127.661 44.8185 127.653C44.8368 127.648 44.8545 127.644 44.8717 127.64C45.0165 127.603 45.1239 127.576 45.2231 127.537C46.2254 127.194 46.4416 127.416 46.3272 128.675C46.3093 128.853 46.2807 129.029 46.2415 129.202C45.3392 133.362 43.1274 136.25 40.0813 138.242C39.481 138.639 38.652 138.71 37.9374 138.661C36.9637 138.596 36.6278 137.879 36.7851 136.717C37.1656 133.913 38.3644 131.999 40.687 131.135C41.1783 130.956 41.959 130.12 41.8929 129.904C41.6267 129.04 40.8799 129.131 40.2153 129.256C40.1285 129.28 40.0432 129.31 39.9598 129.347C37.0816 130.373 35.161 133.457 35.1021 137.153C35.0771 138.7 35.647 139.754 36.8476 140.32C38.2769 140.993 39.674 140.76 40.9835 139.913C43.8582 138.052 46.0146 135.304 47.292 131.693C47.744 130.388 47.8637 128.85 47.9226 127.405C47.9673 126.34 47.2009 125.623 46.4273 125.641ZM116.399 126.371C116.346 126.603 116.297 126.817 116.251 127.019L116.251 127.021C116.153 127.451 116.068 127.826 115.979 128.2C115.432 130.471 114.886 132.74 114.339 135.008L114.336 135.022C114.183 135.666 114.018 136.363 113.315 136.181C112.608 135.998 112.588 135.239 112.754 134.613C113.48 131.853 114.244 129.107 115.047 126.375C115.148 126.034 115.583 125.764 115.906 125.632C115.971 125.605 116.119 125.874 116.25 126.111L116.25 126.111C116.305 126.212 116.358 126.306 116.399 126.371Z" fill="black"/>
</svg>
