<svg width="19" height="12" viewBox="0 0 19 12" fill="none" xmlns="http://www.w3.org/2000/svg">
<path d="M5.64701 0C6.20841 0 6.73679 0.0330233 7.19911 0.132094C7.66144 0.231164 8.05773 0.396282 8.42098 0.627446C8.75122 0.85861 9.01541 1.15582 9.21355 1.5521C9.41169 1.94838 9.47773 2.41071 9.47773 2.97211C9.47773 3.56653 9.34564 4.09491 9.08145 4.49119C8.81727 4.88747 8.38796 5.21771 7.85958 5.48189C8.5861 5.68004 9.1475 6.07632 9.51076 6.60469C9.84099 7.10004 10.0391 7.76051 10.0391 8.48703C10.0391 9.08145 9.90704 9.60983 9.67588 10.0391C9.44471 10.5015 9.11448 10.8647 8.71819 11.1289C8.32191 11.4261 7.89261 11.6243 7.36423 11.7564C6.86888 11.8884 6.34051 11.9545 5.81213 11.9545H0V0H5.64701ZM5.28375 4.82143C5.74608 4.82143 6.14236 4.72235 6.43958 4.49119C6.73679 4.26003 6.9019 3.89677 6.9019 3.40142C6.9019 3.13723 6.83586 2.90606 6.73679 2.70792C6.67074 2.54281 6.53865 2.41071 6.34051 2.31164C6.17539 2.21257 6.01027 2.14652 5.77911 2.08048C5.54794 2.04745 5.31678 2.04745 5.08561 2.04745H2.64188V4.85445L5.28375 4.82143ZM5.44887 9.90704C5.71306 9.90704 5.94422 9.87402 6.17539 9.84099C6.40655 9.77495 6.60469 9.7089 6.80283 9.57681C6.96795 9.44471 7.13307 9.31262 7.23214 9.11448C7.33121 8.91634 7.39726 8.65215 7.39726 8.35494C7.39726 7.72749 7.23214 7.29819 6.86888 7.034C6.53865 6.76981 6.07632 6.63772 5.51492 6.63772H2.64188V9.94006L5.44887 9.90704ZM13.3415 9.67587C13.7047 10.0061 14.2001 10.2043 14.8936 10.2043C15.3559 10.1712 15.7852 10.0722 16.1155 9.84099C16.4457 9.60983 16.6768 9.34564 16.7429 9.08145H18.8234C18.4931 10.1052 17.9648 10.8647 17.2713 11.327C16.6108 11.7233 15.7852 11.9545 14.7945 11.9545C14.101 11.9545 13.5066 11.8554 12.9452 11.6243C12.4168 11.4261 11.9545 11.0959 11.5582 10.6996C11.195 10.3033 10.8977 9.80797 10.6666 9.27959C10.4684 8.71819 10.3694 8.09075 10.3694 7.43028C10.3694 6.76981 10.4684 6.17539 10.6996 5.61399C10.8977 5.05259 11.228 4.55724 11.5912 4.16096C11.9875 3.76467 12.4498 3.43444 12.9782 3.20328C13.5396 2.97211 14.134 2.84002 14.7945 2.84002C15.521 2.84002 16.1815 2.97211 16.7099 3.26932C17.2713 3.56653 17.7006 3.92979 18.0638 4.42514C18.4271 4.9205 18.6583 5.44887 18.8234 6.07632C18.9885 6.70376 19.0215 7.33121 18.9885 7.99168H12.7471C12.7801 8.75122 12.9782 9.31262 13.3415 9.67587ZM16.0164 5.11864C15.7522 4.7884 15.3229 4.62328 14.7285 4.62328C14.3322 4.62328 14.035 4.68933 13.7708 4.82143C13.5396 4.95352 13.3415 5.11864 13.1764 5.31678C13.0112 5.51492 12.9122 5.71306 12.8461 5.9112C12.8131 6.10934 12.7801 6.30748 12.7471 6.4726H16.6108C16.5117 5.87818 16.3136 5.41585 16.0164 5.11864ZM12.3508 0.594422H17.2052V1.94838H12.3508V0.594422Z" fill="black"/>
</svg>
