<svg width="81" height="48" viewBox="0 0 81 48" fill="none" xmlns="http://www.w3.org/2000/svg">
<g clip-path="url(#clip0_429_124)">
<path d="M30.9901 22.5868C30.8169 22.6959 30.6504 22.8165 30.4693 22.9118C30.1472 23.0801 29.9202 22.9399 30 22.5816C30.0715 22.2746 30.2098 21.9877 30.4048 21.742C30.6533 21.4301 30.9623 21.1619 31.2725 20.9086C31.9654 20.3435 32.7205 19.8824 33.5815 19.6262C35.3929 19.0887 36.9088 20.073 37.1794 22.0073C37.3396 21.8654 37.4692 21.7293 37.6187 21.6219C39.4697 20.2913 41.4967 19.6291 43.774 20.0587C44.918 20.2746 45.865 20.8191 46.3043 22.0176L46.413 22.0521C46.6139 21.6903 46.8919 21.352 47.004 20.9638C48.4242 16.0122 50.435 11.2552 52.9918 6.7981C54.1584 4.7668 55.4881 2.84634 57.2621 1.29975C57.7716 0.856962 58.3688 0.516976 58.9433 0.158613C59.1092 0.0546646 59.3328 0.0202064 59.5337 0.00412604C60.1326 -0.0441152 60.5566 0.361915 60.483 0.963207C60.4377 1.33248 60.3036 1.69946 60.1581 2.04576C59.4222 3.79221 58.3982 5.37268 57.3317 6.92042C54.8711 10.4914 52.617 14.1945 50.3901 17.9165C49.776 18.944 49.0854 19.9203 48.4406 20.931C48.2985 21.1539 48.1451 21.3951 48.0942 21.6483C47.8049 23.0755 47.5095 24.5038 47.2943 25.9435C47.2174 26.4604 47.3266 27.0117 47.4076 27.5378C47.4772 27.9835 47.411 28.2539 47.0917 28.3596C46.7294 28.4791 46.3836 28.2878 46.2426 27.8801C45.9511 27.0439 46.01 26.1876 46.1209 25.3325C46.1945 24.7651 46.2907 24.2005 46.3015 23.5751C46.023 23.8743 45.7569 24.1868 45.4637 24.4705C44.3729 25.5249 43.2266 26.5069 41.803 27.0778C40.3669 27.6521 38.9291 27.744 37.5309 26.9566C36.7328 26.5075 36.2533 25.8143 36.1158 24.8891C36.0978 24.8023 36.075 24.7166 36.0473 24.6324C35.7586 24.8679 35.4993 25.1056 35.2146 25.3072C34.5263 25.7931 33.7774 25.9964 32.947 25.7385C32.0837 25.4697 31.5726 24.8231 31.5041 23.9134L31.4854 23.6659L31.3869 23.586C31.3156 23.6957 31.2595 23.8209 31.1707 23.914C30.454 24.6606 29.7425 25.414 29.0049 26.1394C28.7308 26.3993 28.4267 26.6245 28.0992 26.8102C26.821 27.5613 25.4302 26.8544 25.248 25.3652C25.2157 25.1033 25.2434 24.834 25.2434 24.4716C24.8427 24.9041 24.5109 25.2682 24.1719 25.6254C23.415 26.4237 22.6237 27.184 21.6591 27.7227C20.7642 28.2224 19.8228 28.4871 18.8005 28.1632C17.6757 27.8066 17.0904 26.8383 17.2772 25.6564C17.7335 22.7682 20.381 20.0897 23.2367 19.7359C23.9998 19.6412 24.8013 19.7824 25.574 19.895C25.8434 19.9346 26.0789 20.2149 26.3303 20.3855L26.2986 20.5687C26.0036 20.6175 25.6912 20.7553 25.4166 20.6996C24.2217 20.459 23.076 20.5491 21.9891 21.1148C20.6725 21.8005 19.6349 22.7992 18.9505 24.131C18.6862 24.6479 18.505 25.2176 18.3686 25.7839C18.1858 26.5466 18.5384 27.0445 19.2941 27.211C19.8706 27.3399 20.4739 27.238 20.9781 26.9267C21.5578 26.5822 22.1527 26.2163 22.6316 25.746C23.5684 24.8271 24.443 23.8405 25.3119 22.8515C25.621 22.4995 25.8327 22.0595 26.0869 21.6581C26.3546 21.236 26.6025 20.7995 26.8901 20.3912C27.1312 20.0501 27.4369 19.9972 27.7007 20.1959C27.9645 20.3946 27.9973 20.7031 27.7788 21.0425C27.6735 21.2067 27.5733 21.3761 27.4573 21.5323C26.7565 22.4759 26.4718 23.5682 26.3438 24.7163C26.3284 24.8497 26.3239 24.9841 26.3303 25.1183C26.3733 25.9579 26.9676 26.2824 27.6803 25.8585L27.7115 25.839C29.0077 24.9695 29.9814 23.7595 31.0512 22.6522L30.9901 22.5868ZM39.9197 26.5494C40.2865 26.4483 40.9114 26.341 41.4854 26.1055C43.0093 25.4801 44.177 24.351 45.312 23.1898C45.7864 22.7045 45.8062 22.1928 45.278 21.754C44.9254 21.4611 44.4856 21.2073 44.0469 21.1022C41.9524 20.6002 40.0493 21.1292 38.3223 22.3656C37.7681 22.7631 37.3985 23.3224 37.1998 23.9938C36.9705 24.7679 37.2241 25.5277 37.879 25.9946C38.4162 26.3771 39.0259 26.4966 39.9197 26.5489V26.5494ZM49.1397 18.1164L49.2337 18.1474C49.3361 17.9975 49.4414 17.8505 49.5393 17.6977C52.1274 13.6616 54.7145 9.62442 57.3006 5.58632C58.1237 4.29989 58.9116 2.99336 59.395 1.52602C59.4409 1.38647 59.476 1.24347 59.5162 1.10161L59.4228 1.03212C59.1092 1.23198 58.7786 1.40829 58.4859 1.63514C56.9932 2.79293 55.8883 4.29817 54.8728 5.87118C52.9114 8.90865 51.4096 12.1845 50.0828 15.5464C49.7477 16.3947 49.451 17.2595 49.1397 18.1164ZM32.5705 23.6819C32.6101 24.3947 33.0754 24.8392 33.7491 24.7565C33.8814 24.7436 34.0105 24.708 34.1312 24.6514C35.1257 24.1385 35.7846 23.35 35.9788 22.2198C36.088 21.5829 35.7246 21.0712 35.1116 20.8845C34.4566 20.6858 33.8453 20.8179 33.256 21.1142C33.1742 21.1678 33.1166 21.2521 33.0958 21.3486C33.0426 21.5932 33.0336 21.8482 32.9764 22.0917C32.8513 22.6247 32.7069 23.1524 32.5705 23.6819Z" fill="black"/>
<path d="M72.1954 23.0754C72.8118 23.3109 73.3592 23.1679 73.9134 23.0335C74.6068 22.8658 74.9889 22.5017 75.1672 21.7384C75.6263 19.7508 76.4392 17.9021 77.7145 16.3015C78.0985 15.8287 78.5305 15.3983 79.0034 15.0174C79.2794 14.8008 79.6069 14.6621 79.9527 14.6154C80.6184 14.5304 81.0916 15.138 80.9812 15.8754C80.8165 16.974 80.3586 17.9595 79.7925 18.8962C78.807 20.5289 77.6817 22.0394 76.1035 23.146C76.0006 23.2269 75.9276 23.3406 75.8963 23.4688C75.4174 25.4949 74.9457 27.523 74.4812 29.5529C74.4719 29.6173 74.4658 29.6821 74.463 29.747C76.1239 27.6796 77.6941 25.6178 79.7359 24.0442C79.5961 25.2686 78.7736 26.1244 78.0377 27.0226C76.5552 28.8218 75.1293 30.659 73.9151 32.6633C73.4198 33.4823 73.2726 34.3799 73.126 35.2787C72.8469 36.9959 72.6454 38.7245 72.3901 40.4474C72.0465 42.7509 71.3446 44.9533 70.5034 47.1133C70.3698 47.4579 70.2147 47.7892 69.8287 47.9322C69.4109 48.0867 69.0588 47.9897 68.9604 47.5589C68.8149 46.9544 68.7411 46.3343 68.7407 45.712C68.7713 43.5756 69.24 41.507 69.7919 39.4573C70.3438 37.4076 71.1267 35.4671 72.0901 33.5891C72.2634 33.2394 72.3964 32.8705 72.4863 32.4899C73.169 29.7333 73.837 26.972 74.5095 24.2125C74.523 24.1551 74.5338 24.0976 74.5513 24.0161C74.15 24.1057 73.7792 24.1947 73.4051 24.2705C72.8304 24.3844 72.2353 24.3185 71.6984 24.0816C71.4878 23.9931 71.3797 24.0345 71.2399 24.1964C70.3291 25.2566 69.2519 26.0543 67.865 26.3575C67.1858 26.5068 66.5178 26.4873 65.8798 26.1789C65.1859 25.8441 64.7704 25.1859 64.8938 24.4193C65.0353 23.5411 65.2798 22.6803 65.4813 21.8119C65.5062 21.7051 65.5442 21.6017 65.5719 21.4955C65.5764 21.4783 65.5578 21.4541 65.5306 21.3806C64.8904 21.9871 64.2785 22.5941 63.6371 23.1679C62.831 23.8897 62.0397 24.6381 61.1679 25.2704C60.6319 25.6597 59.9792 25.9274 59.3396 26.118C58.5007 26.369 57.7467 25.6787 57.9771 24.715C58.2307 23.6572 58.7735 22.7475 59.292 21.8205C59.3866 21.6483 59.4856 21.4829 59.5354 21.2531C59.3894 21.3571 59.2332 21.449 59.0984 21.5667C57.3387 23.1024 55.5804 24.6398 53.8233 26.1789C53.6264 26.3602 53.4139 26.5232 53.1882 26.6659C52.6951 26.9559 52.1076 26.6286 52.2072 26.0709C52.398 25.0027 52.621 23.9288 52.9623 22.9025C53.2335 22.0864 53.692 21.333 54.086 20.5623C54.2139 20.3119 54.4211 20.0132 54.7301 20.178C55.0296 20.3377 54.849 20.649 54.7647 20.9034C54.3069 22.284 53.852 23.6658 53.3999 25.0487C53.3797 25.1353 53.3638 25.2229 53.3523 25.3111C53.5561 25.1429 53.7027 25.024 53.8459 24.9034C55.6098 23.4102 57.3742 21.917 59.1392 20.4238C59.3621 20.2352 59.5999 20.0654 59.8502 19.9162C60.3975 19.5917 60.8923 19.8312 60.9325 20.479C60.9477 20.8203 60.8817 21.1603 60.74 21.4702C60.4196 22.1691 60.0211 22.8319 59.6826 23.5228C59.4562 23.9891 59.2733 24.479 59.0713 24.9585L59.1562 25.0493C59.3996 24.9643 59.6532 24.9017 59.8847 24.7903C60.8277 24.3371 61.5885 23.6325 62.3454 22.9249C63.1729 22.1513 63.9915 21.3686 64.8298 20.6076C65.1192 20.3503 65.4311 20.1202 65.7615 19.9202C66.2682 19.6089 66.871 19.8984 66.9016 20.5037C66.9231 20.9327 66.8246 21.376 66.7261 21.8004C66.5359 22.6211 66.2806 23.4274 66.1034 24.251C65.9619 24.9086 66.211 25.2124 66.8789 25.2916C67.5851 25.38 68.2983 25.1981 68.8794 24.7816C69.4591 24.371 69.9747 23.8656 70.5006 23.3815C70.5742 23.3143 70.5963 23.1127 70.5572 23.0071C70.0059 21.5478 70.3059 20.2004 71.1312 18.9623C71.361 18.6177 71.7663 18.3598 72.1405 18.1582C72.6228 17.8952 73.1311 17.9641 73.5698 18.3213C74.0085 18.6786 74.1223 19.1414 74.0158 19.675C73.8421 20.5456 73.4107 21.2985 72.9347 22.0296C72.7071 22.3679 72.4597 22.6992 72.1954 23.0754ZM76.4975 21.3611C77.9471 20.2539 79.9663 16.8414 79.8084 15.7588C78.0372 17.2583 77.1733 19.2511 76.4958 21.3611H76.4975ZM71.4029 38.2599C70.654 40.4118 70.148 42.6217 69.9436 44.8999C70.7616 42.7635 71.2133 40.5439 71.4029 38.2599ZM71.4448 22.2122C72.0901 21.422 72.5645 20.6536 72.8469 19.7783C72.9035 19.606 72.8282 19.3947 72.8135 19.204C72.629 19.2661 72.4439 19.3269 72.2605 19.3924C72.2278 19.4087 72.1994 19.4327 72.1778 19.4625C71.5059 20.224 71.3905 21.1383 71.4448 22.2122Z" fill="black"/>
<path d="M11.9213 25.6586C11.4951 25.9889 11.0773 26.3311 10.6414 26.6476C9.53876 27.4464 8.35795 28.0868 6.99261 28.2556C3.9155 28.6421 0.844053 26.9347 0.157987 23.7152C-0.154479 22.2479 0.0447744 20.7937 0.411582 19.3568C1.20407 16.2729 2.80546 13.7011 5.20895 11.6612C6.88733 10.2381 8.77514 9.19576 10.9556 8.77594C12.2474 8.52727 13.5114 8.67889 14.7239 9.17795C14.9741 9.28075 15.1682 9.54034 15.363 9.75225C15.3981 9.79073 15.3194 10.0285 15.2781 10.0325C14.9469 10.0687 14.5824 10.1652 14.2841 10.0675C12.437 9.46453 10.7054 9.81198 9.01968 10.639C6.79371 11.722 4.90633 13.4084 3.56624 15.5119C2.25072 17.5518 1.41521 19.7927 1.36823 22.2559C1.32181 24.7421 3.05905 26.6338 5.50048 26.9175C6.7226 27.0594 7.84397 26.7584 8.86005 26.129C11.3705 24.5721 13.4531 22.527 15.2254 20.15C15.363 19.965 15.4852 19.768 15.6217 19.5814C15.8317 19.2897 16.1362 19.2621 16.439 19.3442C16.7419 19.4263 16.8659 19.6601 16.9134 19.9719C16.991 20.4848 16.7957 20.9241 16.554 21.3284C15.552 23.0014 14.5195 24.6553 13.5114 26.3248C12.9572 27.2437 12.4359 28.1792 11.8873 29.101C11.6819 29.4456 11.3094 29.5604 10.9816 29.4146C10.625 29.2526 10.4416 28.8816 10.5577 28.5072C10.659 28.1827 10.7552 27.8496 10.9109 27.551C11.2086 26.9767 11.5477 26.4271 11.8687 25.8671C11.9015 25.8097 11.9298 25.7523 11.9604 25.6908L11.9213 25.6586Z" fill="black"/>
<path d="M56.2264 17.2462C55.9122 16.9837 55.5652 16.7477 55.2969 16.4421C55.2018 16.3336 55.2295 15.9982 55.3291 15.8678C55.4175 15.753 55.7073 15.7013 55.8692 15.753C56.4584 15.9327 56.6701 16.704 56.2264 17.2462Z" fill="black"/>
</g>
<defs>
<clipPath id="clip0_429_124">
<rect width="81" height="48" fill="white"/>
</clipPath>
</defs>
</svg>
