<svg xmlns="http://www.w3.org/2000/svg" viewBox="0 0 1024 1024">
  <rect width="1024" height="1024" rx="512" />
  <path
    d="M237.32 530.46c-6.6 10.86-13.41 21.82-20 32.41-5.2 8.37-10.59 17-15.82 25.57-3.64 5.94-7.24 12.08-10.73 18-2.71 4.64-5.52 9.43-8.35 14.13a16.1 16.1 0 01-13.75 8 15.7 15.7 0 01-6.4-1.38 16 16 0 01-9.08-19.63l.32-1c.54-1.75 1.1-3.53 1.74-5.31-9.61 5.77-21.83 11.4-36 13.15-19.8 2.45-39.56-1.72-55.66-11.74a72.82 72.82 0 01-33-46.79c-3.46-16-2.51-32.62 3-54a177 177 0 0158.91-93.12c22.5-18.8 45.73-30.28 71.05-35.09a85.22 85.22 0 0148.56 5.06c4 1.63 6.79 4.72 9 7.21l1.15 1.27c1.62 1.73 3.15 4.83 1.28 9.84-1.77 4.76-5.12 5.8-7 6-.81.09-1.64.21-2.47.33-3.55.51-8 1.16-12.32-.25-17.81-5.73-35.73-3.75-56.4 6.24a150.47 150.47 0 00-61.17 53.89c-16.1 24.62-24.16 48.91-24.64 74.27-.47 24.48 16.79 43.6 42 46.48 12 1.38 23.73-1.34 34.78-8.09 27.31-16.68 51.15-38.77 72.89-67.51.79-1.05 1.55-2.17 2.37-3.35s1.45-2.12 2.21-3.16c4-5.46 10.41-7.49 17.61-5.56 3.5.93 9.6 3.92 11.06 13.39 1.42 8.56-2.01 15.58-5.14 20.74zm458.52-75.78c-4.45-1.37-11.26-.25-14.49 3.93s-3.87 11.94-.05 16.24a61.55 61.55 0 008.76 7.76c1 .79 2 1.58 3 2.39a7.5 7.5 0 0010.55-1 19 19 0 003.74-17.61 17.36 17.36 0 00-11.51-11.71zm285.79 47.56c8.41-13.74 13.18-25.76 15-37.83a20.88 20.88 0 00-5.32-18 17.82 17.82 0 00-15.14-5.21 31 31 0 00-14.94 6.29 109.13 109.13 0 00-16.29 16C930 482 919.43 504.2 913.47 529.61c-1.38 5.88-3.53 8.09-9.19 9.44l-.51.12c-1.37.33-2.67.64-3.92.9.3-.43.59-.87.88-1.31 5.81-8.75 11.5-18.43 13.83-29.94 1.88-9.26-.93-17.45-7.91-23.05-7.64-6.13-16.78-7.1-25.07-2.64-4.81 2.59-10.82 6.27-14.53 11.76-11.49 17-14.27 34.4-8.29 51.78l-1.11 1a149.85 149.85 0 01-15.17 12.76 26.3 26.3 0 01-18.38 4.62 10.39 10.39 0 01-2.94-.67 9.22 9.22 0 01.27-2.36c1.09-5 2.44-9.93 3.86-15.14 1.18-4.28 2.39-8.71 3.44-13.17 1.14-4.86 2.57-10.92 2.25-17.14a16 16 0 00-8.37-13.51 16.53 16.53 0 00-16.42.71 82.06 82.06 0 00-12.14 8.86c-6.93 6.2-13.84 12.61-20.52 18.8q-4.39 4.08-8.8 8.15c-6.24 5.75-12.64 11.64-19.78 16.27l.24-.48c1.67-3.36 3.53-6.77 5.33-10.08 2.44-4.47 5-9.11 7.2-13.91a32.2 32.2 0 002.95-15.13c-.39-6.14-3.28-11.08-7.95-13.57s-10.6-2.15-16.06 1a69.59 69.59 0 00-9.38 6.59c-15.13 12.58-30.48 25.4-45.32 37.79l-3.22 2.69c3-8.91 6-17.88 9-26.76.12-.35.26-.72.4-1.09 3-7.75 1.47-13.25-4.42-16.35a11.4 11.4 0 00-8.86-.91c-5.31 1.67-8 6.84-8.87 8.54a373.35 373.35 0 01-3.51 6.56c-3.72 6.85-7.57 13.94-10.17 21.65-4.38 13-7.09 26.42-9.15 37.82a14.15 14.15 0 005.71 14.29 15.8 15.8 0 0017 .43 57.6 57.6 0 008.6-6.45q15.69-13.49 31.35-27l8.5-7.34a79.06 79.06 0 00-3.13 9.92c-1.91 7.86.15 15.61 5.51 20.71a20.21 20.21 0 0019.93 4.53c9.72-2.87 17.49-6.44 23.76-10.93 8.79-6.28 16.88-13.5 24.71-20.47l5-4.4c1.63-1.43 3.25-2.89 4.85-4.36-.92 4-1.76 8-2.42 12-1.93 11.77 4.27 22.92 15.78 28.4 8.47 4 17.68 4.89 28.17 2.63 15.92-3.43 29.86-12 42.56-26.08a41.08 41.08 0 0022.41 1.91l1.92-.39-3.18 12.88c-6 24.16-12.13 49.14-18.3 73.68a51.91 51.91 0 01-4 11.12 348.71 348.71 0 00-27.63 69.55c-6.33 23.2-12.25 48.27-12.63 74.43a96.39 96.39 0 002.77 23.22 13.59 13.59 0 006.75 9.32 14 14 0 006.7 1.64 19.28 19.28 0 006.65-1.27c8.07-2.94 10.85-10 12.35-13.79 11.83-29.95 19-55 22.64-78.95 1.27-8.34 2.43-16.81 3.56-25 1.57-11.46 3.2-23.3 5.11-34.86 1.64-10 3.19-19.35 8.28-27.63 14.87-24.2 32.55-46.21 47.88-64.55.9-1.08 1.81-2.15 2.72-3.22 8.08-9.52 17.25-20.3 19-35.28a7.5 7.5 0 00-12-6.84c-16.29 12.37-30.21 27.39-43.26 42.87 3.25-13.79 6.55-27.73 9.85-41.5 21.15-14.8 35.15-35.11 45-51.19zM717 363.72c-29.79 42.62-57.66 88-81.44 127.16-4.59 7.57-9.58 15-14.4 22.14-2.87 4.26-5.83 8.66-8.66 13-1.26 2-2.7 4.16-3 5.75l-.67 3.29c-3.11 15.11-6.33 30.75-8.67 46.15-.62 4.14.17 9 1 14.11l.33 2.08c2 12.39-4.67 16.5-8.8 17.84a15.49 15.49 0 01-4.86.79c-6.4 0-12.11-4.12-14.54-11-4-11.25-3.16-22.32-1.94-31.92-11.59 10.62-24.58 20.8-40.48 27.09-20.68 8.18-39.75 7.57-56.67-1.82A39 39 0 01456.11 578l-1.24.88c-10.72 7.47-21.88 9.49-33.17 6-9.24-2.84-16-8.71-19.55-16.71-6.32 6.5-12.82 13.16-19.43 19.57a61.47 61.47 0 01-12.12 8.89c-9.37 5.42-19.82 6-28.67 1.61a29.11 29.11 0 01-14.79-17.82l-1.14 1.19c-9 9.31-19 18.87-31.36 25.69-14.07 7.75-27 9.61-39.5 5.7-16.83-5.26-25.9-20-23.1-37.43 2.86-17.84 12.32-35.43 26.63-49.52s32.19-23.24 50-25.42c9.14-1.11 18.19.22 26.94 1.5l2.54.37c4.25.61 7.36 3.16 9.85 5.2l1 .78a14.12 14.12 0 017.43-3.72 13.54 13.54 0 0110.18 2.66c6.35 4.72 7.45 12.73 2.73 19.95-.32.48-.63 1-.95 1.47-1 1.51-1.95 3.06-3.12 4.62-6.41 8.5-10 18.76-11.64 33.27a20.62 20.62 0 00-.13 3.45c.13 2.55.88 3.49 1.06 3.58s1.37.2 3.54-1.07l.12-.07c9.56-6.34 17.56-14.36 25.71-23a11.68 11.68 0 01-2.05-10.2 31.82 31.82 0 016.26-12.81 73.15 73.15 0 0111.34-10.8c9.9-8 19.63-13.26 29.77-16.23 12.41-3.63 24.52-2.25 34.07 3.91a38.44 38.44 0 0114.62 18c24.39-16.28 48.89-21.85 74.74-17 12.94 2.4 22.74 7.86 29.28 16.28.06-.18.12-.35.17-.52a746 746 0 0171.19-166c17.07-29.29 33.06-49.55 51.85-65.7 5.39-4.63 11.39-8.26 17.18-11.77l3.56-2.16a23 23 0 0110.29-2.89A18.25 18.25 0 01751 277a17.14 17.14 0 014.44 14.29 54.33 54.33 0 01-4.44 14.53c-8.39 19.71-19.66 37.4-34 57.9zm-264.84 171.9c.8-4.58-2.77-6.36-5-7-4.56-1.36-9.22-.93-14.54 1.36-.09.62-.18 1.26-.27 1.93a49.19 49.19 0 01-.88 5.28c-1.07 4.49-2.27 9-3.42 13.33-.36 1.33-.71 2.65-1.06 4a5.72 5.72 0 001.7 3.62 4.67 4.67 0 003.67.78 7.21 7.21 0 002-.46c10.22-5.2 16.02-12.66 17.8-22.84zM521.55 575c16.4-6.63 29.47-19 42.52-32.15 1.66-1.68 2.07-2.84 2-3.21s-.43-1.17-1.87-2.34a30 30 0 00-11.47-6.07 72.15 72.15 0 00-16.71-2c-15.22 0-29.94 5.13-44.61 15.5a27.24 27.24 0 00-10.36 14.91 12.81 12.81 0 005.13 14.91c4.32 3 9.36 4.37 19 5 1-.26 2.13-.51 3.28-.78a88.79 88.79 0 0013.09-3.77zm166.64-223.64c-14.46 22.06-27.79 46.81-41 76.27 18.89-29 38.1-58.58 57-87.76 6.06-9.34 12.23-19.14 17.3-29.57-13.49 12.2-23.99 26.84-33.3 41.06zm-409 233.7c7.28-4.3 13.24-8 18.06-12.62 10.93-10.59 21.39-22.2 31.15-33.17a54.22 54.22 0 005.65-8.37c.77-1.31 1.57-2.65 2.42-4a15.34 15.34 0 01-2.66-.29 64.75 64.75 0 00-12.62-1.31 49.18 49.18 0 00-22.84 5.44c-14.46 7.42-25.41 18.11-32.53 31.78A77.39 77.39 0 00259.6 580c-.36 1.48-.62 3.52.19 4.82.72 1.15 2.5 2.08 5 2.63a19.37 19.37 0 0014.4-2.39z"
    fill="#fff" />
</svg>